<svg width="180" height="50" viewBox="0 0 180 50" fill="none" xmlns="http://www.w3.org/2000/svg">
<path d="M19.4393 49.6552C15.7431 49.6552 12.4119 48.8588 9.44585 47.266C6.52539 45.6302 4.22097 43.4348 2.53258 40.6798C0.844194 37.8817 0 34.7393 0 31.2524C0 27.7656 0.844194 24.6446 2.53258 21.8896C4.22097 19.1346 6.52539 16.9607 9.44585 15.3679C12.4119 13.7752 15.7431 12.9788 19.4393 12.9788C22.0859 12.9788 24.5501 13.4308 26.8317 14.3348C29.1133 15.1957 31.0755 16.4011 32.7182 17.9508C34.4066 19.4574 35.6159 21.2654 36.346 23.3747L28.4744 26.6033C27.79 24.8383 26.6263 23.4178 24.9836 22.3416C23.3865 21.2654 21.5384 20.7273 19.4393 20.7273C17.4771 20.7273 15.7203 21.1793 14.1688 22.0833C12.6629 22.9873 11.4765 24.2357 10.6095 25.8284C9.74246 27.4212 9.30895 29.2507 9.30895 31.317C9.30895 33.3833 9.74246 35.2128 10.6095 36.8055C11.4765 38.3983 12.6629 39.6466 14.1688 40.5506C15.7203 41.4546 17.4771 41.9066 19.4393 41.9066C21.584 41.9066 23.4549 41.3685 25.052 40.2924C26.6492 39.2162 27.79 37.7741 28.4744 35.9661L36.346 39.3238C35.6159 41.304 34.4294 43.0904 32.7867 44.6832C31.1439 46.2329 29.1817 47.4598 26.9001 48.3638C24.6185 49.2247 22.1316 49.6552 19.4393 49.6552Z" fill="#04A51E"/>
<path d="M43.1496 48.8803V13.7536H52.1163V48.8803H43.1496ZM43.1496 9.81481V0.774851H52.1163V9.81481H43.1496Z" fill="#04A51E"/>
<path d="M60.3954 48.8803V13.7536H68.8145V21.5667L68.13 20.4045C68.997 17.7786 70.3432 15.9491 72.1684 14.9159C74.0394 13.8828 76.2753 13.3662 78.8764 13.3662H81.0667V20.8565H77.8496C75.2942 20.8565 73.2408 21.6098 71.6893 23.1165C70.1378 24.5801 69.3621 26.6463 69.3621 29.3153V48.8803H60.3954Z" fill="#04A51E"/>
<path d="M103.93 49.6552C100.234 49.6552 96.9026 48.8588 93.9366 47.266C91.0161 45.6302 88.7117 43.4348 87.0233 40.6798C85.3349 37.8817 84.4907 34.7393 84.4907 31.2524C84.4907 27.7656 85.3349 24.6446 87.0233 21.8896C88.7117 19.1346 91.0161 16.9607 93.9366 15.3679C96.9026 13.7752 100.234 12.9788 103.93 12.9788C106.577 12.9788 109.041 13.4308 111.322 14.3348C113.604 15.1957 115.566 16.4011 117.209 17.9508C118.897 19.4574 120.107 21.2654 120.837 23.3747L112.965 26.6033C112.281 24.8383 111.117 23.4178 109.474 22.3416C107.877 21.2654 106.029 20.7273 103.93 20.7273C101.968 20.7273 100.211 21.1793 98.6595 22.0833C97.1536 22.9873 95.9672 24.2357 95.1002 25.8284C94.2332 27.4212 93.7997 29.2507 93.7997 31.317C93.7997 33.3833 94.2332 35.2128 95.1002 36.8055C95.9672 38.3983 97.1536 39.6466 98.6595 40.5506C100.211 41.4546 101.968 41.9066 103.93 41.9066C106.075 41.9066 107.946 41.3685 109.543 40.2924C111.14 39.2162 112.281 37.7741 112.965 35.9661L120.837 39.3238C120.107 41.304 118.92 43.0904 117.277 44.6832C115.635 46.2329 113.672 47.4598 111.391 48.3638C109.109 49.2247 106.622 49.6552 103.93 49.6552Z" fill="#04A51E"/>
<path d="M127.64 48.8803V0H136.607V48.8803H127.64Z" fill="#04A51E"/>
<path d="M162.546 49.6552C158.713 49.6552 155.359 48.8373 152.484 47.2015C149.609 45.5657 147.373 43.3487 145.776 40.5506C144.179 37.7526 143.38 34.6532 143.38 31.2524C143.38 27.7225 144.179 24.6016 145.776 21.8896C147.419 19.1346 149.632 16.9607 152.415 15.3679C155.245 13.7752 158.393 12.9788 161.861 12.9788C164.782 12.9788 167.337 13.4308 169.527 14.3348C171.763 15.2388 173.657 16.4872 175.209 18.0799C176.76 19.6727 177.947 21.5022 178.768 23.5684C179.589 25.5917 180 27.7871 180 30.1547C180 30.7574 179.954 31.3816 179.863 32.0273C179.817 32.673 179.703 33.2326 179.521 33.7061H150.773V27.249H174.456L170.212 30.2838C170.623 28.3037 170.509 26.5387 169.87 24.989C169.276 23.4393 168.273 22.2125 166.858 21.3085C165.489 20.4045 163.823 19.9525 161.861 19.9525C159.99 19.9525 158.325 20.4045 156.865 21.3085C155.404 22.1694 154.286 23.4608 153.511 25.1827C152.78 26.8616 152.507 28.9063 152.689 31.317C152.507 33.4693 152.803 35.385 153.579 37.0638C154.4 38.6996 155.587 39.9695 157.138 40.8735C158.735 41.7775 160.561 42.2295 162.614 42.2295C164.668 42.2295 166.402 41.8205 167.816 41.0026C169.276 40.1847 170.417 39.087 171.239 37.7095L178.494 41.0672C177.764 42.7461 176.623 44.2312 175.072 45.5226C173.52 46.814 171.672 47.8257 169.527 48.5575C167.428 49.2893 165.101 49.6552 162.546 49.6552Z" fill="#04A51E"/>
</svg>
