<svg width="24" height="12" viewBox="0 0 24 12" fill="none" xmlns="http://www.w3.org/2000/svg">
<path fill-rule="evenodd" clip-rule="evenodd" d="M0 0.914838H6.19934C6.88366 0.893327 7.56392 1.02624 8.18807 1.30341C8.81221 1.58058 9.36371 1.99467 9.80037 2.51399C10.8033 3.63047 11.1679 5.01126 11.1679 6.45689C11.1679 7.90252 10.8031 9.30457 9.80037 10.4217C9.35293 10.9269 8.79885 11.3298 8.17686 11.6022C7.55488 11.8747 6.87998 12.01 6.19934 11.9989H0V9.01965H6.19934C6.8602 9.01965 7.43014 8.82255 7.79469 8.34053C8.19617 7.79443 8.39708 7.1301 8.36441 6.45668C8.38698 5.7913 8.1868 5.13706 7.79469 4.59473C7.60578 4.35997 7.36207 4.17363 7.0843 4.05157C6.80654 3.92952 6.50293 3.87536 6.19934 3.8937H0V0.914838Z" fill="#FE4E30"/>
<path d="M16.9686 0.912171H19.5669V6.17596H16.9686V0.912171Z" fill="#FE4E30"/>
<path fill-rule="evenodd" clip-rule="evenodd" d="M24 0.91217V7.05884C24 8.53411 23.4985 9.74098 22.3362 10.6574C21.1929 11.5562 19.7652 12.0309 18.3026 11.9984C16.7763 11.9984 15.3624 11.6407 14.2001 10.6574C13.6683 10.2173 13.243 9.66583 12.9551 9.04329C12.6673 8.42074 12.5242 7.74278 12.5363 7.05884V0.91217H15.5669V7.05884C15.5458 7.38501 15.6078 7.7112 15.7471 8.00785C15.8864 8.30449 16.0987 8.5622 16.3647 8.75762C16.8662 9.18231 17.5955 9.31586 18.3019 9.31586C18.9988 9.33889 19.6852 9.14341 20.262 8.75762C20.8318 8.33292 21.0369 7.77425 21.0369 7.05884V0.91217H24Z" fill="#FE4E30"/>
</svg>
